HIERARCHY
ROOT hip
{
	OFFSET 0.000000 0.000000 0.000000 
	CHANNELS 6 Xposition Yposition Zposition Zrotation Xrotation Yrotation
	JOINT Tail1
	{
		OFFSET 0.064000 4.268608 -4.177856 
		CHANNELS 3 Zrotation Xrotation Yrotation
		JOINT Tail2
		{
			OFFSET -0.064000 -0.067712 -1.575552 
			CHANNELS 3 Zrotation Xrotation Yrotation
			JOINT Tail3
			{
				OFFSET 0.000000 0.053376 -2.050176 
				CHANNELS 3 Zrotation Xrotation Yrotation
				JOINT Tail4
				{
					OFFSET 0.000000 0.027136 -2.142080 
					CHANNELS 3 Zrotation Xrotation Yrotation
					JOINT Tail5
					{
						OFFSET 0.000000 0.047680 -2.374848 
						CHANNELS 3 Zrotation Xrotation Yrotation
						JOINT Tail6
						{
							OFFSET 0.000000 0.069120 -2.218752 
							CHANNELS 3 Zrotation Xrotation Yrotation
							JOINT Tail7
							{
								OFFSET 0.000000 0.094272 -2.101056 
								CHANNELS 3 Zrotation Xrotation Yrotation
								JOINT Tail8
								{
									OFFSET 0.000000 0.109504 -2.411840 
									CHANNELS 3 Zrotation Xrotation Yrotation
									JOINT Tail9
									{
										OFFSET 0.000000 0.121728 -2.284736 
										CHANNELS 3 Zrotation Xrotation Yrotation
										JOINT Tail10
										{
											OFFSET 0.000000 0.092736 -2.144576 
											CHANNELS 3 Zrotation Xrotation Yrotation
											JOINT Tail11
											{
												OFFSET 0.000000 0.052480 -2.147072 
												CHANNELS 3 Zrotation Xrotation Yrotation
												JOINT Tail12
												{
													OFFSET 0.000000 0.057856 -2.024960 
													CHANNELS 3 Zrotation Xrotation Yrotation
													End Site
													{
														OFFSET 0.000000 0.000000 0.000000 
													}
												}
											}
										}
									}
								}
							}
						}
					}
				}
			}
		}
	}
	JOINT rThigh
	{
		OFFSET -3.200000 2.540608 -1.297856 
		CHANNELS 3 Zrotation Xrotation Yrotation
		JOINT rLeg
		{
			OFFSET -0.448000 -8.832000 -1.664000 
			CHANNELS 3 Zrotation Xrotation Yrotation
			JOINT rShin
			{
				OFFSET 0.468160 -6.405632 -1.243392 
				CHANNELS 3 Zrotation Xrotation Yrotation
				JOINT rFoot
				{
					OFFSET 0.275776 -5.114432 0.848960 
					CHANNELS 3 Zrotation Xrotation Yrotation
					End Site
					{
						OFFSET 0.000000 0.000000 0.000000 
					}
				}
			}
		}
	}
	JOINT lThigh
	{
		OFFSET 3.200000 2.540608 -1.297856 
		CHANNELS 3 Zrotation Xrotation Yrotation
		JOINT lLeg
		{
			OFFSET 0.448000 -8.832000 -1.664000 
			CHANNELS 3 Zrotation Xrotation Yrotation
			JOINT lShin
			{
				OFFSET -0.468160 -6.405632 -1.243392 
				CHANNELS 3 Zrotation Xrotation Yrotation
				JOINT lFoot
				{
					OFFSET -0.275776 -5.114432 0.848960 
					CHANNELS 3 Zrotation Xrotation Yrotation
					End Site
					{
						OFFSET 0.000000 0.000000 0.000000 
					}
				}
			}
		}
	}
	JOINT waist
	{
		OFFSET 0.064000 0.812608 3.630144 
		CHANNELS 3 Zrotation Xrotation Yrotation
		JOINT abdomen
		{
			OFFSET -0.064000 -1.728000 7.744000 
			CHANNELS 3 Zrotation Xrotation Yrotation
			JOINT chest
			{
				OFFSET 0.000000 0.768000 4.608000 
				CHANNELS 3 Zrotation Xrotation Yrotation
				JOINT neck
				{
					OFFSET 0.000000 0.960000 8.512000 
					CHANNELS 3 Zrotation Xrotation Yrotation
					JOINT neck2
					{
						OFFSET 0.000000 4.547712 5.109888 
						CHANNELS 3 Zrotation Xrotation Yrotation
						JOINT head
						{
							OFFSET 0.128000 -0.771712 2.826112 
							CHANNELS 3 Zrotation Xrotation Yrotation
							JOINT rightEye
							{
								OFFSET -1.862656 0.952832 4.092032 
								CHANNELS 3 Zrotation Xrotation Yrotation
								End Site
								{
									OFFSET 0.000000 0.000000 0.000000 
								}
							}
							JOINT leftEye
							{
								OFFSET 1.616960 0.939008 4.084352 
								CHANNELS 3 Zrotation Xrotation Yrotation
								End Site
								{
									OFFSET 0.000000 0.000000 0.000000 
								}
							}
							JOINT lEar
							{
								OFFSET 2.752000 3.136000 1.920000 
								CHANNELS 3 Zrotation Xrotation Yrotation
								End Site
								{
									OFFSET 0.000000 0.000000 0.000000 
								}
							}
							JOINT rEar
							{
								OFFSET -3.008000 3.136000 1.920000 
								CHANNELS 3 Zrotation Xrotation Yrotation
								End Site
								{
									OFFSET 0.000000 0.000000 0.000000 
								}
							}
						}
					}
				}
				JOINT rShldr
				{
					OFFSET -2.688000 0.256000 8.000000 
					CHANNELS 3 Zrotation Xrotation Yrotation
					JOINT rForeArm
					{
						OFFSET -1.280000 -6.528000 -0.768000 
						CHANNELS 3 Zrotation Xrotation Yrotation
						JOINT rWrist
						{
							OFFSET 0.314880 -8.967104 -0.293184 
							CHANNELS 3 Zrotation Xrotation Yrotation
							JOINT rHand
							{
								OFFSET 0.161536 -1.890496 0.796352 
								CHANNELS 3 Zrotation Xrotation Yrotation
								End Site
								{
									OFFSET 0.000000 0.000000 0.000000 
								}
							}
						}
					}
				}
				JOINT lShldr
				{
					OFFSET 2.688000 0.256000 8.000000 
					CHANNELS 3 Zrotation Xrotation Yrotation
					JOINT lForeArm
					{
						OFFSET 1.280000 -6.528000 -0.768000 
						CHANNELS 3 Zrotation Xrotation Yrotation
						JOINT lWrist
						{
							OFFSET -0.314880 -8.967104 -0.293184 
							CHANNELS 3 Zrotation Xrotation Yrotation
							JOINT lHand
							{
								OFFSET -0.161536 -1.890496 0.796352 
								CHANNELS 3 Zrotation Xrotation Yrotation
								End Site
								{
									OFFSET 0.000000 0.000000 0.000000 
								}
							}
						}
					}
				}
			}
		}
	}
}
MOTION
Frames: 9
Frame Time: 0.033333
0.251136 21.489830 -11.374208 -0.839856 -0.351522 -0.200463 -0.009977 -11.825900 -0.548925 0.049226 -37.490002 0.049491 0.030479 -16.006001 -0.020893 0.019731 -8.164110 -0.016729 -0.029633 -8.632820 0.034614 -0.009885 -8.906310 0.037532 -0.009771 -0.556645 0.029202 0.000000 6.425800 0.068359 -0.000019 8.994100 0.107423 0.009814 5.693420 0.135746 0.063319 22.275101 0.044358 -0.009766 0.019523 0.039065 -4.410360 3.980520 0.705858 7.170250 1.523600 -1.499050 1.952650 -14.015200 -0.200447 -15.067600 -19.861799 1.222200 6.629980 -4.104560 -0.730228 -11.685200 17.520599 3.926150 -3.489380 -17.362700 -0.203182 10.572000 -28.534401 -6.715250 0.263680 -0.068493 -0.028982 0.068358 -0.000326 -0.273440 0.019531 0.039039 -0.068372 0.025819 0.058587 -0.009840 0.000000 0.019532 -0.000000 -0.000000 -0.048828 0.000000 -0.021004 -0.021544 -0.017229 -0.018349 -0.017693 -0.021179 -0.019536 0.000000 0.000000 -0.019536 0.000000 0.000000 -1.365060 7.901290 0.075956 -0.018316 -8.281300 -0.022270 -0.009767 1.005900 0.000170 -23.606701 -30.974701 22.872000 1.369670 7.920360 -0.115559 0.004407 -24.287001 0.010715 0.000000 5.468800 -0.000000 22.056999 -23.425301 -27.489300 
0.950272 19.932934 -11.374400 -3.194170 -1.257840 -0.763550 -0.009765 -10.819800 -1.017430 0.099011 -37.919800 0.168268 0.060974 -16.006100 -0.080844 0.039395 -7.441440 -0.063257 -0.049492 -9.170050 0.177663 -0.009906 -9.668030 0.174116 -0.009767 -1.005920 0.136549 -0.000049 6.816400 0.283206 0.009813 9.003970 0.428154 0.068566 5.371740 0.530691 0.242567 22.217899 0.191480 -0.019531 0.097601 0.156283 -8.724770 8.406810 1.832550 11.945500 5.774870 -2.066660 11.337100 -39.377300 3.725070 -19.957800 -2.855390 7.491440 11.013400 -28.271400 1.506310 -23.042200 57.840500 14.444800 -12.806900 -6.810350 -3.223820 0.236636 -59.184799 -23.194799 1.035210 -0.236459 -0.112936 0.263800 -0.014352 -0.996035 0.068406 0.165693 -0.273638 0.125102 0.283082 -0.040776 -0.000000 0.058594 0.000000 -0.000000 -0.195310 -0.000000 -0.021004 -0.021544 -0.017229 -0.018349 -0.017693 -0.021179 -0.019536 -0.000000 0.000000 -0.019536 -0.000000 0.000000 -1.423590 7.950880 0.084096 -0.067664 -8.974600 -0.098565 -0.009767 1.035200 0.029474 -22.513700 -29.689301 22.432501 1.477150 8.020970 -0.130666 0.004713 -25.761999 0.010845 -0.000000 5.878900 -0.000000 21.923100 -22.691099 -27.864000 
2.015872 17.748550 -11.374720 -6.832950 -2.540450 -1.731210 -0.009668 -9.989970 -1.417680 0.136823 -38.270500 0.319125 0.081312 -16.006300 -0.182659 0.049178 -6.836010 -0.130867 -0.059428 -9.619510 0.400230 -0.009995 -10.303100 0.398602 -0.009820 -1.357450 0.302497 0.000000 7.168000 0.634770 0.029659 9.014190 0.952383 0.156625 5.052000 1.167810 0.547119 21.859600 0.421308 -0.029297 0.224430 0.351675 -7.533300 10.219900 2.065600 9.633590 16.257999 -1.701510 18.475800 -71.142899 11.716500 -17.349501 18.909000 10.682600 11.367900 -36.862701 3.807680 -73.075600 80.902199 64.728104 -17.850100 -21.735201 -8.001790 -18.340900 -59.225498 -48.476501 2.236470 -0.516950 -0.224138 0.595308 -0.031387 -2.079890 0.146475 0.369566 -0.596647 0.276928 0.653782 -0.071473 0.000000 0.117190 -0.000000 -0.000000 -0.419920 0.000000 -0.021004 -0.021544 -0.017229 -0.018349 -0.017692 -0.021179 -0.019536 -0.000000 -0.000000 -0.019537 -0.000000 -0.000000 -1.516350 8.024330 0.097281 -0.147033 -10.020000 -0.221042 -0.009768 1.084000 0.068545 -20.846800 -27.659700 21.669100 1.636910 8.192000 -0.153651 0.005029 -27.246000 0.010986 -0.000000 6.279300 0.000000 21.796900 -21.965300 -28.229601 
3.366592 15.272326 -11.375104 -11.561300 -3.980340 -3.108430 -0.019784 -9.325610 -1.741510 0.174781 -38.572899 0.519139 0.101655 -16.006599 -0.323529 0.058993 -6.338130 -0.218098 -0.079324 -10.001000 0.699115 -0.010062 -10.801100 0.691474 -0.009770 -1.630990 0.536832 0.009848 7.480690 1.102220 0.059303 9.025100 1.660600 0.283634 4.726870 2.027450 0.952982 21.225100 0.739091 -0.058696 0.390000 0.615640 -10.664300 8.312600 3.317650 13.154900 29.627800 -2.972510 151.483994 -80.970497 144.966003 -17.375700 35.956200 12.067500 12.700900 -46.414700 9.454050 -161.365997 72.159798 153.285004 -21.104200 -17.553400 -10.197400 -35.312302 -64.801300 -76.471901 3.808960 -0.884726 -0.352168 1.024180 -0.061167 -3.417450 0.253886 0.649750 -1.028290 0.489378 1.150800 -0.121923 0.000000 0.195310 -0.000000 0.000000 -0.722660 -0.000000 -0.021004 -0.021544 -0.017228 -0.018349 -0.017694 -0.021178 -0.019536 0.000000 0.000001 -0.019536 0.000000 0.000001 -1.643290 8.121600 0.115517 -0.247073 -11.386900 -0.390771 -0.019535 1.142600 0.117580 -18.765800 -24.967501 20.514601 1.857130 8.422140 -0.187134 0.005352 -28.721001 0.011137 0.000000 6.689500 -0.000000 21.675301 -21.229401 -28.596399 
4.920896 12.839873 -11.375552 -17.138201 -5.358080 -4.862310 -0.019407 -8.807930 -2.004970 0.200383 -38.816101 0.750607 0.121918 -16.017099 -0.503471 0.068787 -5.937920 -0.344444 -0.089500 -10.294700 1.068010 -0.009953 -11.191200 1.052770 -0.009910 -1.816540 0.819996 0.019415 7.764260 1.677080 0.098348 9.047310 2.533340 0.429774 4.398350 3.101930 1.436700 20.336201 1.161270 -0.078118 0.604191 0.938325 -16.035999 1.545940 5.131280 23.530399 51.554298 -9.694910 174.768005 -64.547302 170.057999 -11.095900 41.678501 6.504790 14.830000 -52.064899 20.548300 -171.610001 60.848499 164.373001 -18.754000 -12.534200 -9.575600 -44.130100 -67.787003 -96.116798 5.665310 -1.333770 -0.485948 1.566500 -0.125122 -4.920320 0.371009 0.986014 -1.559120 0.745634 1.773800 -0.180785 0.000000 0.302730 -0.000000 0.000001 -1.103500 0.000000 -0.021004 -0.021543 -0.017229 -0.018348 -0.017692 -0.021179 -0.019537 0.000000 -0.000001 -0.019533 0.000001 -0.000001 -1.794650 8.244510 0.137772 -0.378665 -13.046700 -0.593543 -0.019535 1.220700 0.176196 -16.386200 -21.716000 18.929501 2.126700 8.703090 -0.230148 0.005686 -30.205000 0.011302 0.000000 7.089800 0.000001 21.558901 -20.493799 -28.955500 
6.597120 10.787395 -11.376128 -23.358700 -6.433140 -6.871970 -0.029594 -8.426570 -2.211340 0.226164 -39.001099 1.021240 0.132067 -16.017599 -0.705750 0.078500 -5.625660 -0.480585 -0.099291 -10.520600 1.505270 -0.009962 -11.475300 1.482420 -0.009966 -1.933800 1.151960 0.029560 8.009010 2.359180 0.138182 9.071000 3.552420 0.605215 4.079470 4.361490 2.004370 19.225901 1.665200 -0.107403 0.847127 1.319990 -18.411699 -6.864580 6.471170 40.166302 75.923798 -30.105499 -174.869003 -59.930302 -176.973007 8.114750 33.543900 -11.027300 13.544600 -53.039700 33.602798 -172.901993 55.554699 168.074997 -8.820490 -14.047700 -5.057440 -41.654499 -68.445900 -98.681198 7.757250 -1.855030 -0.594937 2.183250 -0.218812 -6.480790 0.517356 1.376780 -2.190220 1.049890 2.492860 -0.259716 0.000000 0.419920 0.000001 -0.000000 -1.543000 -0.000000 -0.021005 -0.021545 -0.017230 -0.018350 -0.017693 -0.021178 -0.019535 0.000000 0.000001 -0.019537 0.000000 0.000001 -1.977080 8.371980 0.165423 -0.533131 -14.960400 -0.841092 -0.029304 1.318400 0.244814 -13.831800 -18.018101 16.872900 2.436050 9.036560 -0.282543 0.006030 -31.688999 0.011476 0.000001 7.500000 -0.000001 21.448099 -19.756500 -29.315500 
8.314880 9.369794 -11.376704 -29.965900 -7.042100 -8.921130 -0.039025 -8.182010 -2.359050 0.238914 -39.137001 1.322700 0.142228 -16.027300 -0.947064 0.088388 -5.401380 -0.636211 -0.109244 -10.677800 2.011060 -0.020271 -11.650700 1.968610 -0.010030 -1.972970 1.532860 0.038870 8.224800 3.129240 0.177414 9.106300 4.718040 0.798354 3.772520 5.787840 2.643550 17.910801 2.275370 -0.146740 1.128320 1.751000 -20.050301 -6.713590 7.008260 16.454100 70.834198 -10.916300 -167.438995 -62.809799 -169.024002 22.104601 38.903000 -25.524000 8.254760 -50.075600 39.873600 -171.783005 59.230801 169.365997 -3.299230 -18.155800 -2.133080 -26.603701 -65.469498 -87.359802 10.007200 -2.419390 -0.673935 2.883140 -0.346902 -8.000550 0.683565 1.820870 -2.912530 1.381600 3.317920 -0.338402 -0.000001 0.556640 0.000001 -0.000001 -2.041000 0.000000 -0.021005 -0.021544 -0.017229 -0.018350 -0.017693 -0.021178 -0.019536 0.000001 -0.000001 -0.019538 0.000001 -0.000001 -2.182470 8.515310 0.197419 -0.722497 -17.117701 -1.121310 -0.029305 1.416000 0.313224 -11.183300 -14.001000 14.349500 2.803250 9.409330 -0.349189 0.006383 -33.164001 0.011668 0.000001 7.910200 0.000000 21.342100 -19.018700 -29.672600 
9.991040 8.497474 -11.377280 -36.720200 -7.167380 -10.844400 -0.049265 -8.054510 -2.458100 0.252032 -39.223701 1.643780 0.142434 -16.027901 -1.210680 0.088251 -5.255140 -0.802468 -0.109241 -10.785800 2.557660 -0.019930 -11.738800 2.495950 -0.010099 -1.953440 1.952760 0.049242 8.421400 3.986890 0.226234 9.134850 5.999330 1.018680 3.471720 7.361380 3.331200 16.433201 2.988560 -0.185839 1.428300 2.221440 -20.821501 -7.839670 6.853780 8.369910 64.156097 -4.853660 -158.319000 -75.268600 -161.145996 25.142099 37.910801 -28.188101 -0.180452 -46.114899 38.211899 -169.169998 67.832497 168.845993 -1.163160 -26.059299 -0.599105 -12.872900 -56.894199 -74.188202 12.348000 -3.025840 -0.717470 3.642070 -0.504071 -9.371880 0.858311 2.308150 -3.697080 1.758040 4.218800 -0.434024 -0.000000 0.703130 0.000002 0.000001 -2.597700 0.000000 -0.021006 -0.021545 -0.017227 -0.018351 -0.017693 -0.021177 -0.019535 -0.000001 0.000002 -0.019538 -0.000002 0.000003 -2.399410 8.666410 0.232263 -0.928826 -19.480600 -1.433380 -0.039078 1.533200 0.391666 -8.495920 -9.766560 11.369500 3.197770 9.816790 -0.425904 0.006751 -34.647999 0.011875 -0.000001 8.310500 -0.000000 21.241899 -18.281099 -30.026100 
11.545600 8.012353 -11.377920 -43.369900 -6.901260 -12.550100 -0.059120 -8.044340 -2.508270 0.251792 -39.280499 1.985630 0.142206 -16.038601 -1.503710 0.088410 -5.187040 -0.997908 -0.119680 -10.826500 3.151330 -0.020455 -11.739100 3.081740 -0.010169 -1.865630 2.401970 0.059037 8.579210 4.903300 0.284462 9.177120 7.386320 1.245740 3.197410 9.073280 4.066360 14.799300 3.805110 -0.224461 1.766570 2.741340 -20.440701 -12.665100 6.272370 8.898080 63.337799 -5.480480 -20.633699 -83.335999 -25.642599 18.823601 29.653299 -20.634100 -6.621700 -41.892300 34.382500 -160.667999 79.320602 161.992004 -0.491333 -31.278099 0.037799 -5.247270 -47.380100 -65.145203 14.721600 -3.648670 -0.707831 4.464840 -0.662589 -10.498600 1.053510 2.826680 -4.564420 2.153810 5.195610 -0.538093 -0.000001 0.869140 0.000002 -0.000000 -3.193400 -0.000001 -0.021005 -0.021543 -0.017229 -0.018351 -0.017694 -0.021178 -0.019534 -0.000001 0.000002 -0.019535 -0.000001 0.000002 -2.647440 8.821920 0.273414 -1.154910 -22.027000 -1.781590 -0.048845 1.660200 0.470165 -5.827700 -5.446580 7.977650 3.631320 10.266800 -0.516107 0.007131 -36.123001 0.012095 0.000001 8.720700 0.000001 21.148300 -17.551300 -30.373301 
